<?xml version="1.0" encoding="utf-8"?>
<!-- Generator: Adobe Illustrator 22.0.0, SVG Export Plug-In . SVG Version: 6.00 Build 0)  -->
<svg version="1.1" id="Layer_1" xmlns="http://www.w3.org/2000/svg" xmlns:xlink="http://www.w3.org/1999/xlink" x="0px" y="0px"
	 viewBox="0 0 97 34" style="enable-background:new 0 0 97 34;" xml:space="preserve">
<style type="text/css">
	.st0{display:none;}
	.st1{display:inline;}
	.st2{fill:#FFFFFF;}
</style>
<g id="Layer_1_2_">
	<g id="Layer_1_1_" class="st0">
		<g class="st1">
			<path class="st2" d="M43.7,30.1c0.5,0,0.9,0.4,0.9,0.9s-0.4,0.9-0.9,0.9c-0.5,0-0.9-0.4-0.9-0.9S43.2,30.1,43.7,30.1"/>
			<path class="st2" d="M77.3,30.1c0.5,0,0.9,0.4,0.9,0.9s-0.4,0.9-0.9,0.9c-0.5,0-0.9-0.4-0.9-0.9S76.8,30.1,77.3,30.1"/>
			<rect x="43.7" y="30.6" class="st2" width="33.5" height="0.4"/>
			<path class="st2" d="M37.3,29l-0.8,0.7c-0.3-0.4-0.5-0.6-0.8-0.6c-0.1,0-0.3,0-0.3,0.1c-0.1,0.1-0.1,0.2-0.1,0.2
				c0,0.1,0,0.2,0.1,0.3c0.1,0.1,0.3,0.3,0.8,0.7c0.4,0.3,0.6,0.5,0.7,0.6c0.2,0.2,0.4,0.4,0.5,0.6c0.1,0.2,0.1,0.4,0.1,0.6
				c0,0.4-0.2,0.8-0.5,1.1c-0.3,0.3-0.7,0.4-1.2,0.4c-0.4,0-0.7-0.1-1-0.3c-0.3-0.2-0.5-0.5-0.7-0.9l0.9-0.5
				c0.3,0.5,0.6,0.7,0.9,0.7c0.2,0,0.3-0.1,0.5-0.2c0.1-0.1,0.2-0.2,0.2-0.4c0-0.1,0-0.3-0.1-0.4c-0.1-0.1-0.3-0.3-0.6-0.6
				c-0.6-0.5-1-0.9-1.2-1.1c-0.2-0.3-0.3-0.5-0.3-0.8c0-0.4,0.1-0.7,0.4-1c0.3-0.3,0.7-0.4,1.1-0.4c0.3,0,0.5,0.1,0.8,0.2
				C36.7,28.4,37,28.6,37.3,29z"/>
			<path class="st2" d="M43.7,28.1c0.8,0,1.4,0.3,2,0.8c0.6,0.6,0.8,1.3,0.8,2.1c0,0.8-0.3,1.5-0.8,2c-0.6,0.6-1.2,0.8-2,0.8
				c-0.8,0-1.5-0.3-2.1-0.9c-0.5-0.6-0.8-1.2-0.8-2c0-0.5,0.1-1,0.4-1.5c0.3-0.4,0.6-0.8,1.1-1C42.7,28.2,43.2,28.1,43.7,28.1z
				 M43.7,29.1c-0.5,0-0.9,0.2-1.3,0.5s-0.5,0.8-0.5,1.4c0,0.6,0.2,1.1,0.7,1.4c0.3,0.3,0.7,0.4,1.2,0.4c0.5,0,0.9-0.2,1.3-0.5
				c0.3-0.4,0.5-0.8,0.5-1.3c0-0.5-0.2-1-0.5-1.3C44.6,29.3,44.2,29.1,43.7,29.1z"/>
			<path class="st2" d="M50.2,28.2h1v4.5h1.5v1h-2.6V28.2z"/>
			<path class="st2" d="M56.2,28.2h1.1v3.6c0,0.3,0,0.5,0.1,0.6c0.1,0.1,0.1,0.2,0.3,0.3c0.1,0.1,0.3,0.1,0.4,0.1
				c0.2,0,0.3,0,0.5-0.1c0.1-0.1,0.2-0.2,0.3-0.3c0.1-0.1,0.1-0.4,0.1-0.8v-3.4H60v3.3c0,0.6,0,0.9-0.1,1.2
				c-0.1,0.2-0.2,0.4-0.4,0.6c-0.2,0.2-0.4,0.3-0.6,0.4c-0.2,0.1-0.5,0.1-0.8,0.1c-0.4,0-0.7-0.1-1-0.3c-0.3-0.2-0.5-0.4-0.6-0.7
				c-0.1-0.3-0.2-0.7-0.2-1.4L56.2,28.2L56.2,28.2z"/>
			<path class="st2" d="M63.3,28.2h3v1h-1v4.5h-1.1v-4.5h-1C63.3,29.2,63.3,28.2,63.3,28.2z"/>
			<path class="st2" d="M69.7,28.2h1v5.5h-1V28.2z"/>
			<path class="st2" d="M77.2,28.1c0.8,0,1.4,0.3,2,0.8c0.6,0.6,0.8,1.3,0.8,2.1c0,0.8-0.3,1.5-0.8,2c-0.6,0.6-1.2,0.8-2,0.8
				c-0.8,0-1.5-0.3-2.1-0.9c-0.5-0.6-0.8-1.2-0.8-2c0-0.5,0.1-1,0.4-1.5c0.3-0.4,0.6-0.8,1-1C76.2,28.2,76.7,28.1,77.2,28.1z
				 M77.2,29.1c-0.5,0-0.9,0.2-1.3,0.5s-0.5,0.8-0.5,1.4c0,0.6,0.2,1.1,0.7,1.4c0.3,0.3,0.7,0.4,1.2,0.4c0.5,0,0.9-0.2,1.3-0.5
				c0.3-0.4,0.5-0.8,0.5-1.3c0-0.5-0.2-1-0.5-1.3C78.2,29.3,77.7,29.1,77.2,29.1z"/>
			<path class="st2" d="M83.8,28.2h1l2.4,3.6v-3.6h1v5.5h-1l-2.3-3.6v3.6h-1C83.8,33.7,83.8,28.2,83.8,28.2z"/>
			<path class="st2" d="M95,29l-0.8,0.7c-0.3-0.4-0.5-0.6-0.8-0.6c-0.1,0-0.2,0-0.3,0.1c-0.1,0.1-0.1,0.2-0.1,0.2
				c0,0.1,0,0.2,0.1,0.3c0.1,0.1,0.3,0.3,0.8,0.7c0.4,0.3,0.6,0.5,0.7,0.6c0.2,0.2,0.4,0.4,0.4,0.6c0.1,0.2,0.1,0.4,0.1,0.6
				c0,0.4-0.2,0.8-0.5,1.1c-0.3,0.3-0.7,0.4-1.2,0.4c-0.4,0-0.7-0.1-1-0.3c-0.3-0.2-0.5-0.5-0.8-0.9l0.9-0.5
				c0.3,0.5,0.6,0.7,0.9,0.7c0.2,0,0.3-0.1,0.5-0.2c0.1-0.1,0.2-0.2,0.2-0.4c0-0.1-0.1-0.3-0.1-0.4c-0.1-0.1-0.3-0.3-0.6-0.6
				c-0.6-0.5-1-0.9-1.2-1.1c-0.2-0.3-0.3-0.5-0.3-0.8c0-0.4,0.1-0.7,0.4-1c0.3-0.3,0.7-0.4,1.1-0.4c0.3,0,0.5,0.1,0.8,0.2
				C94.5,28.4,94.7,28.6,95,29z"/>
			<path class="st2" d="M43.7,28c1.6,0,2.9,1.3,2.9,2.9c0,1.6-1.3,2.9-2.9,2.9c-1.6,0-2.9-1.3-2.9-2.9C40.8,29.3,42.1,28,43.7,28"/>
			<path class="st2" d="M49.5,15.1c1.6,0,2.9,1.3,2.9,2.9c0,1.6-1.3,2.9-2.9,2.9c-1.6,0-2.9-1.3-2.9-2.9
				C46.5,16.4,47.8,15.1,49.5,15.1"/>
			<path class="st2" d="M77.1,28c1.6,0,2.9,1.3,2.9,2.9c0,1.6-1.3,2.9-2.9,2.9s-2.9-1.3-2.9-2.9C74.2,29.3,75.5,28,77.1,28"/>
			<rect x="40" y="24.9" transform="matrix(0.4096 -0.9123 0.9123 0.4096 4.4444 57.0054)" class="st2" width="12.5" height="0.4"/>
		</g>
		<g class="st1">
			<g>
				<g>
					<g>
						<path class="st2" d="M4.1,24.4l-4-12.8h2.3l2.8,9l2.6-9h2.3l2.8,9l2.6-9h2.3l-3.7,12.8h-2.3l-2.8-9l-2.6,9L4.1,24.4L4.1,24.4z
							"/>
					</g>
					<g>
						<path class="st2" d="M4.1,24.4l-4-12.8h2.3l2.8,9l2.6-9h2.3l2.8,9l2.6-9h2.3l-3.7,12.8h-2.3l-2.8-9l-2.6,9L4.1,24.4L4.1,24.4z
							"/>
					</g>
					<g>
						<path class="st2" d="M4.1,24.4l-4-12.8h2.3l2.8,9l2.6-9h2.3l2.8,9l2.6-9h2.3l-3.7,12.8h-2.3l-2.8-9l-2.6,9L4.1,24.4L4.1,24.4z
							"/>
					</g>
				</g>
				<g>
					<g>
						<path class="st2" d="M22,13.8v3.1h4.8l0.5,2.2H22v3.1h6.4v2.2h-8.6V11.6h8.6v2.2H22z"/>
					</g>
					<g>
						<path class="st2" d="M22,13.8v3.1h4.8l0.5,2.2H22v3.1h6.4v2.2h-8.6V11.6h8.6v2.2H22z"/>
					</g>
					<g>
						<path class="st2" d="M22,13.8v3.1h4.8l0.5,2.2H22v3.1h6.4v2.2h-8.6V11.6h8.6v2.2H22z"/>
					</g>
				</g>
				<g>
					<g>
						<path class="st2" d="M39.4,17.6c0.5,0.3,0.9,0.8,1.2,1.3c0.3,0.5,0.4,1.1,0.4,1.8v0c0,0.5-0.1,1-0.3,1.5
							c-0.2,0.5-0.5,0.9-0.8,1.2c-0.3,0.3-0.7,0.6-1.2,0.8c-0.5,0.2-0.9,0.3-1.4,0.3h-3.6l0.9-2.2h2.8c0.4,0,0.8-0.1,1.1-0.4
							c0.3-0.3,0.5-0.7,0.5-1.1v0c0-0.4-0.2-0.8-0.5-1.1c-0.3-0.3-0.7-0.4-1.1-0.4h-0.9h-3.6v3.1v2.2h-2.2v-5.3v-2.2v-5.3h5.8
							c0.5,0,1,0.1,1.5,0.3c0.5,0.2,0.9,0.5,1.2,0.8c0.3,0.3,0.6,0.7,0.8,1.2c0.2,0.4,0.3,0.9,0.3,1.4v0c0,0.4-0.1,0.8-0.2,1.2
							C39.8,16.9,39.6,17.3,39.4,17.6z M37.9,15.3c0-0.4-0.1-0.8-0.4-1.1c-0.3-0.3-0.7-0.4-1.1-0.4h-3.6v3.1h3.6
							c0.4,0,0.8-0.1,1.1-0.4C37.8,16.2,37.9,15.8,37.9,15.3L37.9,15.3L37.9,15.3z"/>
					</g>
					<g>
						<path class="st2" d="M39.4,17.6c0.5,0.3,0.9,0.8,1.2,1.3c0.3,0.5,0.4,1.1,0.4,1.8v0c0,0.5-0.1,1-0.3,1.5
							c-0.2,0.5-0.5,0.9-0.8,1.2c-0.3,0.3-0.7,0.6-1.2,0.8c-0.5,0.2-0.9,0.3-1.4,0.3h-3.6l0.9-2.2h2.8c0.4,0,0.8-0.1,1.1-0.4
							c0.3-0.3,0.5-0.7,0.5-1.1v0c0-0.4-0.2-0.8-0.5-1.1c-0.3-0.3-0.7-0.4-1.1-0.4h-0.9h-3.6v3.1v2.2h-2.2v-5.3v-2.2v-5.3h5.8
							c0.5,0,1,0.1,1.5,0.3c0.5,0.2,0.9,0.5,1.2,0.8c0.3,0.3,0.6,0.7,0.8,1.2c0.2,0.4,0.3,0.9,0.3,1.4v0c0,0.4-0.1,0.8-0.2,1.2
							C39.8,16.9,39.6,17.3,39.4,17.6z M37.9,15.3c0-0.4-0.1-0.8-0.4-1.1c-0.3-0.3-0.7-0.4-1.1-0.4h-3.6v3.1h3.6
							c0.4,0,0.8-0.1,1.1-0.4C37.8,16.2,37.9,15.8,37.9,15.3L37.9,15.3L37.9,15.3z"/>
					</g>
					<g>
						<path class="st2" d="M39.4,17.6c0.5,0.3,0.9,0.8,1.2,1.3c0.3,0.5,0.4,1.1,0.4,1.8v0c0,0.5-0.1,1-0.3,1.5
							c-0.2,0.5-0.5,0.9-0.8,1.2c-0.3,0.3-0.7,0.6-1.2,0.8c-0.5,0.2-0.9,0.3-1.4,0.3h-3.6l0.9-2.2h2.8c0.4,0,0.8-0.1,1.1-0.4
							c0.3-0.3,0.5-0.7,0.5-1.1v0c0-0.4-0.2-0.8-0.5-1.1c-0.3-0.3-0.7-0.4-1.1-0.4h-0.9h-3.6v3.1v2.2h-2.2v-5.3v-2.2v-5.3h5.8
							c0.5,0,1,0.1,1.5,0.3c0.5,0.2,0.9,0.5,1.2,0.8c0.3,0.3,0.6,0.7,0.8,1.2c0.2,0.4,0.3,0.9,0.3,1.4v0c0,0.4-0.1,0.8-0.2,1.2
							C39.8,16.9,39.6,17.3,39.4,17.6z M37.9,15.3c0-0.4-0.1-0.8-0.4-1.1c-0.3-0.3-0.7-0.4-1.1-0.4h-3.6v3.1h3.6
							c0.4,0,0.8-0.1,1.1-0.4C37.8,16.2,37.9,15.8,37.9,15.3L37.9,15.3L37.9,15.3z"/>
					</g>
				</g>
				<g>
					<g>
						<path class="st2" d="M49.5,11.3c0.9,0,1.8,0.2,2.6,0.5c0.8,0.3,1.5,0.8,2.1,1.4c0.6,0.6,1.1,1.3,1.4,2.1
							c0.3,0.8,0.5,1.7,0.5,2.6s-0.2,1.8-0.5,2.6c-0.4,0.8-0.8,1.5-1.4,2.1c-0.6,0.6-1.3,1.1-2.1,1.4c-0.8,0.3-1.7,0.5-2.6,0.5
							c-0.9,0-1.8-0.2-2.6-0.5c-0.8-0.3-1.5-0.8-2.1-1.4c-0.6-0.6-1.1-1.3-1.4-2.1c-0.3-0.8-0.5-1.7-0.5-2.6s0.2-1.8,0.5-2.6
							c0.3-0.8,0.8-1.5,1.4-2.1c0.6-0.6,1.3-1.1,2.1-1.4C47.7,11.5,48.6,11.3,49.5,11.3z M49.5,13.5c-0.6,0-1.2,0.1-1.7,0.3
							c-0.5,0.2-1,0.6-1.4,1c-0.4,0.4-0.8,0.9-1,1.4C45.1,16.8,45,17.4,45,18c0,0.6,0.1,1.2,0.3,1.7c0.2,0.5,0.6,1,1,1.5
							c0.4,0.4,0.9,0.8,1.4,1c0.5,0.2,1.1,0.3,1.7,0.3c0.6,0,1.2-0.1,1.7-0.3c0.5-0.2,1-0.5,1.5-1c0.4-0.4,0.8-0.9,1-1.5
							c0.2-0.5,0.3-1.1,0.3-1.7c0-0.6-0.1-1.2-0.3-1.7c-0.2-0.5-0.5-1-1-1.4c-0.4-0.4-0.9-0.8-1.5-1C50.6,13.6,50.1,13.5,49.5,13.5z
							"/>
					</g>
					<g>
						<path class="st2" d="M49.5,11.3c0.9,0,1.8,0.2,2.6,0.5c0.8,0.3,1.5,0.8,2.1,1.4c0.6,0.6,1.1,1.3,1.4,2.1
							c0.3,0.8,0.5,1.7,0.5,2.6s-0.2,1.8-0.5,2.6c-0.4,0.8-0.8,1.5-1.4,2.1c-0.6,0.6-1.3,1.1-2.1,1.4c-0.8,0.3-1.7,0.5-2.6,0.5
							c-0.9,0-1.8-0.2-2.6-0.5c-0.8-0.3-1.5-0.8-2.1-1.4c-0.6-0.6-1.1-1.3-1.4-2.1c-0.3-0.8-0.5-1.7-0.5-2.6s0.2-1.8,0.5-2.6
							c0.3-0.8,0.8-1.5,1.4-2.1c0.6-0.6,1.3-1.1,2.1-1.4C47.7,11.5,48.6,11.3,49.5,11.3z M49.5,13.5c-0.6,0-1.2,0.1-1.7,0.3
							c-0.5,0.2-1,0.6-1.4,1c-0.4,0.4-0.8,0.9-1,1.4C45.1,16.8,45,17.4,45,18c0,0.6,0.1,1.2,0.3,1.7c0.2,0.5,0.6,1,1,1.5
							c0.4,0.4,0.9,0.8,1.4,1c0.5,0.2,1.1,0.3,1.7,0.3c0.6,0,1.2-0.1,1.7-0.3c0.5-0.2,1-0.5,1.5-1c0.4-0.4,0.8-0.9,1-1.5
							c0.2-0.5,0.3-1.1,0.3-1.7c0-0.6-0.1-1.2-0.3-1.7c-0.2-0.5-0.5-1-1-1.4c-0.4-0.4-0.9-0.8-1.5-1C50.6,13.6,50.1,13.5,49.5,13.5z
							"/>
					</g>
					<g>
						<path class="st2" d="M49.5,11.3c0.9,0,1.8,0.2,2.6,0.5c0.8,0.3,1.5,0.8,2.1,1.4c0.6,0.6,1.1,1.3,1.4,2.1
							c0.3,0.8,0.5,1.7,0.5,2.6s-0.2,1.8-0.5,2.6c-0.4,0.8-0.8,1.5-1.4,2.1c-0.6,0.6-1.3,1.1-2.1,1.4c-0.8,0.3-1.7,0.5-2.6,0.5
							c-0.9,0-1.8-0.2-2.6-0.5c-0.8-0.3-1.5-0.8-2.1-1.4c-0.6-0.6-1.1-1.3-1.4-2.1c-0.3-0.8-0.5-1.7-0.5-2.6s0.2-1.8,0.5-2.6
							c0.3-0.8,0.8-1.5,1.4-2.1c0.6-0.6,1.3-1.1,2.1-1.4C47.7,11.5,48.6,11.3,49.5,11.3z M49.5,13.5c-0.6,0-1.2,0.1-1.7,0.3
							c-0.5,0.2-1,0.6-1.4,1c-0.4,0.4-0.8,0.9-1,1.4C45.1,16.8,45,17.4,45,18c0,0.6,0.1,1.2,0.3,1.7c0.2,0.5,0.6,1,1,1.5
							c0.4,0.4,0.9,0.8,1.4,1c0.5,0.2,1.1,0.3,1.7,0.3c0.6,0,1.2-0.1,1.7-0.3c0.5-0.2,1-0.5,1.5-1c0.4-0.4,0.8-0.9,1-1.5
							c0.2-0.5,0.3-1.1,0.3-1.7c0-0.6-0.1-1.2-0.3-1.7c-0.2-0.5-0.5-1-1-1.4c-0.4-0.4-0.9-0.8-1.5-1C50.6,13.6,50.1,13.5,49.5,13.5z
							"/>
					</g>
				</g>
				<g>
					<g>
						<path class="st2" d="M67.8,16.2c0,0.5-0.1,0.9-0.2,1.3c-0.1,0.4-0.3,0.8-0.5,1.2c-0.2,0.4-0.5,0.7-0.8,1
							c-0.3,0.3-0.7,0.5-1.1,0.7l2.6,4.1h-2.6l-2.3-3.6h-1.5l0.9-2.2h1c0.7,0,1.2-0.2,1.7-0.7c0.2-0.2,0.4-0.5,0.5-0.8
							c0.1-0.3,0.2-0.6,0.2-0.9c0-0.3-0.1-0.6-0.2-0.9c-0.1-0.3-0.3-0.6-0.5-0.8c-0.5-0.5-1-0.7-1.7-0.7h-2.6V15v3.6v2.2v3.6h-2.2
							v-3.6V15v-3.4h4.8c0.6,0,1.2,0.1,1.8,0.4c0.6,0.2,1,0.6,1.5,1c0.4,0.4,0.7,0.9,1,1.5C67.7,15,67.8,15.6,67.8,16.2z"/>
					</g>
					<g>
						<path class="st2" d="M67.8,16.2c0,0.5-0.1,0.9-0.2,1.3c-0.1,0.4-0.3,0.8-0.5,1.2c-0.2,0.4-0.5,0.7-0.8,1
							c-0.3,0.3-0.7,0.5-1.1,0.7l2.6,4.1h-2.6l-2.3-3.6h-1.5l0.9-2.2h1c0.7,0,1.2-0.2,1.7-0.7c0.2-0.2,0.4-0.5,0.5-0.8
							c0.1-0.3,0.2-0.6,0.2-0.9c0-0.3-0.1-0.6-0.2-0.9c-0.1-0.3-0.3-0.6-0.5-0.8c-0.5-0.5-1-0.7-1.7-0.7h-2.6V15v3.6v2.2v3.6h-2.2
							v-3.6V15v-3.4h4.8c0.6,0,1.2,0.1,1.8,0.4c0.6,0.2,1,0.6,1.5,1c0.4,0.4,0.7,0.9,1,1.5C67.7,15,67.8,15.6,67.8,16.2z"/>
					</g>
					<g>
						<path class="st2" d="M67.8,16.2c0,0.5-0.1,0.9-0.2,1.3c-0.1,0.4-0.3,0.8-0.5,1.2c-0.2,0.4-0.5,0.7-0.8,1
							c-0.3,0.3-0.7,0.5-1.1,0.7l2.6,4.1h-2.6l-2.3-3.6h-1.5l0.9-2.2h1c0.7,0,1.2-0.2,1.7-0.7c0.2-0.2,0.4-0.5,0.5-0.8
							c0.1-0.3,0.2-0.6,0.2-0.9c0-0.3-0.1-0.6-0.2-0.9c-0.1-0.3-0.3-0.6-0.5-0.8c-0.5-0.5-1-0.7-1.7-0.7h-2.6V15v3.6v2.2v3.6h-2.2
							v-3.6V15v-3.4h4.8c0.6,0,1.2,0.1,1.8,0.4c0.6,0.2,1,0.6,1.5,1c0.4,0.4,0.7,0.9,1,1.5C67.7,15,67.8,15.6,67.8,16.2z"/>
					</g>
				</g>
				<g>
					<g>
						<path class="st2" d="M78.8,17.6c0.5,0.3,0.9,0.8,1.2,1.3c0.3,0.5,0.4,1.1,0.4,1.8v0c0,0.5-0.1,1-0.3,1.5
							c-0.2,0.5-0.5,0.9-0.8,1.2c-0.3,0.3-0.7,0.6-1.2,0.8c-0.4,0.2-0.9,0.3-1.4,0.3H73l0.9-2.2h2.8c0.4,0,0.8-0.1,1.1-0.4
							c0.3-0.3,0.4-0.7,0.4-1.1v0c0-0.4-0.1-0.8-0.4-1.1c-0.3-0.3-0.7-0.4-1.1-0.4h-0.9h-3.6v3.1v2.2H70v-5.3v-2.2v-5.3h5.8
							c0.5,0,1,0.1,1.5,0.3c0.5,0.2,0.9,0.5,1.2,0.8c0.3,0.3,0.6,0.7,0.8,1.2c0.2,0.4,0.3,0.9,0.3,1.4v0c0,0.4-0.1,0.8-0.2,1.2
							C79.2,16.9,79,17.3,78.8,17.6z M77.3,15.3c0-0.4-0.2-0.8-0.4-1.1c-0.3-0.3-0.7-0.4-1.1-0.4h-3.6v3.1h3.6
							c0.4,0,0.8-0.1,1.1-0.4C77.2,16.2,77.3,15.8,77.3,15.3L77.3,15.3z"/>
					</g>
					<g>
						<path class="st2" d="M78.8,17.6c0.5,0.3,0.9,0.8,1.2,1.3c0.3,0.5,0.4,1.1,0.4,1.8v0c0,0.5-0.1,1-0.3,1.5
							c-0.2,0.5-0.5,0.9-0.8,1.2c-0.3,0.3-0.7,0.6-1.2,0.8c-0.4,0.2-0.9,0.3-1.4,0.3H73l0.9-2.2h2.8c0.4,0,0.8-0.1,1.1-0.4
							c0.3-0.3,0.4-0.7,0.4-1.1v0c0-0.4-0.1-0.8-0.4-1.1c-0.3-0.3-0.7-0.4-1.1-0.4h-0.9h-3.6v3.1v2.2H70v-5.3v-2.2v-5.3h5.8
							c0.5,0,1,0.1,1.5,0.3c0.5,0.2,0.9,0.5,1.2,0.8c0.3,0.3,0.6,0.7,0.8,1.2c0.2,0.4,0.3,0.9,0.3,1.4v0c0,0.4-0.1,0.8-0.2,1.2
							C79.2,16.9,79,17.3,78.8,17.6z M77.3,15.3c0-0.4-0.2-0.8-0.4-1.1c-0.3-0.3-0.7-0.4-1.1-0.4h-3.6v3.1h3.6
							c0.4,0,0.8-0.1,1.1-0.4C77.2,16.2,77.3,15.8,77.3,15.3L77.3,15.3z"/>
					</g>
					<g>
						<path class="st2" d="M78.8,17.6c0.5,0.3,0.9,0.8,1.2,1.3c0.3,0.5,0.4,1.1,0.4,1.8v0c0,0.5-0.1,1-0.3,1.5
							c-0.2,0.5-0.5,0.9-0.8,1.2c-0.3,0.3-0.7,0.6-1.2,0.8c-0.4,0.2-0.9,0.3-1.4,0.3H73l0.9-2.2h2.8c0.4,0,0.8-0.1,1.1-0.4
							c0.3-0.3,0.4-0.7,0.4-1.1v0c0-0.4-0.1-0.8-0.4-1.1c-0.3-0.3-0.7-0.4-1.1-0.4h-0.9h-3.6v3.1v2.2H70v-5.3v-2.2v-5.3h5.8
							c0.5,0,1,0.1,1.5,0.3c0.5,0.2,0.9,0.5,1.2,0.8c0.3,0.3,0.6,0.7,0.8,1.2c0.2,0.4,0.3,0.9,0.3,1.4v0c0,0.4-0.1,0.8-0.2,1.2
							C79.2,16.9,79,17.3,78.8,17.6z M77.3,15.3c0-0.4-0.2-0.8-0.4-1.1c-0.3-0.3-0.7-0.4-1.1-0.4h-3.6v3.1h3.6
							c0.4,0,0.8-0.1,1.1-0.4C77.2,16.2,77.3,15.8,77.3,15.3L77.3,15.3z"/>
					</g>
				</g>
				<g>
					<g>
						<path class="st2" d="M85,24.4h-2.2V11.6H85V24.4z"/>
					</g>
					<g>
						<path class="st2" d="M85,24.4h-2.2V11.6H85V24.4z"/>
					</g>
					<g>
						<path class="st2" d="M85,24.4h-2.2V11.6H85V24.4z"/>
					</g>
				</g>
				<g>
					<g>
						<path class="st2" d="M96.9,13.8h-3.7v10.6h-2.2V13.8h-3.8v-2.2h3.8h2.2h3.7V13.8z"/>
					</g>
					<g>
						<path class="st2" d="M96.9,13.8h-3.7v10.6h-2.2V13.8h-3.8v-2.2h3.8h2.2h3.7V13.8z"/>
					</g>
					<g>
						<path class="st2" d="M96.9,13.8h-3.7v10.6h-2.2V13.8h-3.8v-2.2h3.8h2.2h3.7V13.8z"/>
					</g>
				</g>
			</g>
		</g>
	</g>
	<g id="Layer_1_copy">
		<g>
			<path class="st2" d="M43.7,30.1c0.5,0,0.9,0.4,0.9,0.9s-0.4,0.9-0.9,0.9c-0.5,0-0.9-0.4-0.9-0.9S43.2,30.1,43.7,30.1"/>
			<path class="st2" d="M77.3,30.1c0.5,0,0.9,0.4,0.9,0.9s-0.4,0.9-0.9,0.9c-0.5,0-0.9-0.4-0.9-0.9S76.8,30.1,77.3,30.1"/>
			<rect x="43.7" y="30.6" class="st2" width="33.5" height="0.4"/>
			<path class="st2" d="M37.3,29l-0.8,0.7c-0.3-0.4-0.5-0.6-0.8-0.6c-0.1,0-0.3,0-0.3,0.1c-0.1,0.1-0.1,0.2-0.1,0.2
				c0,0.1,0,0.2,0.1,0.3c0.1,0.1,0.3,0.3,0.8,0.7c0.4,0.3,0.6,0.5,0.7,0.6c0.2,0.2,0.4,0.4,0.5,0.6c0.1,0.2,0.1,0.4,0.1,0.6
				c0,0.4-0.2,0.8-0.5,1.1c-0.3,0.3-0.7,0.4-1.2,0.4c-0.4,0-0.7-0.1-1-0.3c-0.3-0.2-0.5-0.5-0.7-0.9l0.9-0.5
				c0.3,0.5,0.6,0.7,0.9,0.7c0.2,0,0.3-0.1,0.5-0.2c0.1-0.1,0.2-0.2,0.2-0.4c0-0.1,0-0.3-0.1-0.4c-0.1-0.1-0.3-0.3-0.6-0.6
				c-0.6-0.5-1-0.9-1.2-1.1c-0.2-0.3-0.3-0.5-0.3-0.8c0-0.4,0.1-0.7,0.4-1c0.3-0.3,0.7-0.4,1.1-0.4c0.3,0,0.5,0.1,0.8,0.2
				C36.7,28.4,37,28.6,37.3,29z"/>
			<path class="st2" d="M43.7,28.1c0.8,0,1.4,0.3,2,0.8c0.6,0.6,0.8,1.3,0.8,2.1c0,0.8-0.3,1.5-0.8,2c-0.6,0.6-1.2,0.8-2,0.8
				c-0.8,0-1.5-0.3-2.1-0.9c-0.5-0.6-0.8-1.2-0.8-2c0-0.5,0.1-1,0.4-1.5c0.3-0.4,0.6-0.8,1.1-1C42.7,28.2,43.2,28.1,43.7,28.1z
				 M43.7,29.1c-0.5,0-0.9,0.2-1.3,0.5s-0.5,0.8-0.5,1.4c0,0.6,0.2,1.1,0.7,1.4c0.3,0.3,0.7,0.4,1.2,0.4c0.5,0,0.9-0.2,1.3-0.5
				c0.3-0.4,0.5-0.8,0.5-1.3c0-0.5-0.2-1-0.5-1.3C44.6,29.3,44.2,29.1,43.7,29.1z"/>
			<path class="st2" d="M50.2,28.2h1v4.5h1.5v1h-2.6V28.2z"/>
			<path class="st2" d="M56.2,28.2h1.1v3.6c0,0.3,0,0.5,0.1,0.6c0.1,0.1,0.1,0.2,0.3,0.3c0.1,0.1,0.3,0.1,0.4,0.1
				c0.2,0,0.3,0,0.5-0.1c0.1-0.1,0.2-0.2,0.3-0.3c0.1-0.1,0.1-0.4,0.1-0.8v-3.4H60v3.3c0,0.6,0,0.9-0.1,1.2
				c-0.1,0.2-0.2,0.4-0.4,0.6c-0.2,0.2-0.4,0.3-0.6,0.4c-0.2,0.1-0.5,0.1-0.8,0.1c-0.4,0-0.7-0.1-1-0.3c-0.3-0.2-0.5-0.4-0.6-0.7
				c-0.1-0.3-0.2-0.7-0.2-1.4L56.2,28.2L56.2,28.2z"/>
			<path class="st2" d="M63.3,28.2h3v1h-1v4.5h-1.1v-4.5h-1C63.3,29.2,63.3,28.2,63.3,28.2z"/>
			<path class="st2" d="M69.7,28.2h1v5.5h-1V28.2z"/>
			<path class="st2" d="M77.2,28.1c0.8,0,1.4,0.3,2,0.8c0.6,0.6,0.8,1.3,0.8,2.1c0,0.8-0.3,1.5-0.8,2c-0.6,0.6-1.2,0.8-2,0.8
				c-0.8,0-1.5-0.3-2.1-0.9c-0.5-0.6-0.8-1.2-0.8-2c0-0.5,0.1-1,0.4-1.5c0.3-0.4,0.6-0.8,1-1C76.2,28.2,76.7,28.1,77.2,28.1z
				 M77.2,29.1c-0.5,0-0.9,0.2-1.3,0.5s-0.5,0.8-0.5,1.4c0,0.6,0.2,1.1,0.7,1.4c0.3,0.3,0.7,0.4,1.2,0.4c0.5,0,0.9-0.2,1.3-0.5
				c0.3-0.4,0.5-0.8,0.5-1.3c0-0.5-0.2-1-0.5-1.3C78.2,29.3,77.7,29.1,77.2,29.1z"/>
			<path class="st2" d="M83.8,28.2h1l2.4,3.6v-3.6h1v5.5h-1l-2.3-3.6v3.6h-1C83.8,33.7,83.8,28.2,83.8,28.2z"/>
			<path class="st2" d="M95,29l-0.8,0.7c-0.3-0.4-0.5-0.6-0.8-0.6c-0.1,0-0.2,0-0.3,0.1c-0.1,0.1-0.1,0.2-0.1,0.2
				c0,0.1,0,0.2,0.1,0.3c0.1,0.1,0.3,0.3,0.8,0.7c0.4,0.3,0.6,0.5,0.7,0.6c0.2,0.2,0.4,0.4,0.4,0.6c0.1,0.2,0.1,0.4,0.1,0.6
				c0,0.4-0.2,0.8-0.5,1.1c-0.3,0.3-0.7,0.4-1.2,0.4c-0.4,0-0.7-0.1-1-0.3c-0.3-0.2-0.5-0.5-0.8-0.9l0.9-0.5
				c0.3,0.5,0.6,0.7,0.9,0.7c0.2,0,0.3-0.1,0.5-0.2c0.1-0.1,0.2-0.2,0.2-0.4c0-0.1-0.1-0.3-0.1-0.4c-0.1-0.1-0.3-0.3-0.6-0.6
				c-0.6-0.5-1-0.9-1.2-1.1c-0.2-0.3-0.3-0.5-0.3-0.8c0-0.4,0.1-0.7,0.4-1c0.3-0.3,0.7-0.4,1.1-0.4c0.3,0,0.5,0.1,0.8,0.2
				C94.5,28.4,94.7,28.6,95,29z"/>
			<path class="st2" d="M43.7,28c1.6,0,2.9,1.3,2.9,2.9c0,1.6-1.3,2.9-2.9,2.9c-1.6,0-2.9-1.3-2.9-2.9C40.8,29.3,42.1,28,43.7,28"/>
			<path class="st2" d="M49.5,15.1c1.6,0,2.9,1.3,2.9,2.9c0,1.6-1.3,2.9-2.9,2.9c-1.6,0-2.9-1.3-2.9-2.9
				C46.5,16.4,47.8,15.1,49.5,15.1"/>
			<path class="st2" d="M77.1,28c1.6,0,2.9,1.3,2.9,2.9c0,1.6-1.3,2.9-2.9,2.9s-2.9-1.3-2.9-2.9C74.2,29.3,75.5,28,77.1,28"/>
			<rect x="40" y="24.9" transform="matrix(0.4096 -0.9123 0.9123 0.4096 4.4444 57.0054)" class="st2" width="12.5" height="0.4"/>
		</g>
		<g>
			<g>
				<g>
					<g>
						<path class="st2" d="M4.1,24.4l-4-12.8h2.3l2.8,9l2.6-9h2.3l2.8,9l2.6-9h2.3l-3.7,12.8h-2.3l-2.8-9l-2.6,9L4.1,24.4L4.1,24.4z
							"/>
					</g>
					<g>
						<path class="st2" d="M4.1,24.4l-4-12.8h2.3l2.8,9l2.6-9h2.3l2.8,9l2.6-9h2.3l-3.7,12.8h-2.3l-2.8-9l-2.6,9L4.1,24.4L4.1,24.4z
							"/>
					</g>
					<g>
						<path class="st2" d="M4.1,24.4l-4-12.8h2.3l2.8,9l2.6-9h2.3l2.8,9l2.6-9h2.3l-3.7,12.8h-2.3l-2.8-9l-2.6,9L4.1,24.4L4.1,24.4z
							"/>
					</g>
				</g>
				<g>
					<g>
						<path class="st2" d="M22,13.8v3.1h4.8l0.5,2.2H22v3.1h6.4v2.2h-8.6V11.6h8.6v2.2H22z"/>
					</g>
					<g>
						<path class="st2" d="M22,13.8v3.1h4.8l0.5,2.2H22v3.1h6.4v2.2h-8.6V11.6h8.6v2.2H22z"/>
					</g>
					<g>
						<path class="st2" d="M22,13.8v3.1h4.8l0.5,2.2H22v3.1h6.4v2.2h-8.6V11.6h8.6v2.2H22z"/>
					</g>
				</g>
				<g>
					<g>
						<path class="st2" d="M39.4,17.6c0.5,0.3,0.9,0.8,1.2,1.3c0.3,0.5,0.4,1.1,0.4,1.8v0c0,0.5-0.1,1-0.3,1.5
							c-0.2,0.5-0.5,0.9-0.8,1.2c-0.3,0.3-0.7,0.6-1.2,0.8c-0.5,0.2-0.9,0.3-1.4,0.3h-3.6l0.9-2.2h2.8c0.4,0,0.8-0.1,1.1-0.4
							c0.3-0.3,0.5-0.7,0.5-1.1v0c0-0.4-0.2-0.8-0.5-1.1c-0.3-0.3-0.7-0.4-1.1-0.4h-0.9h-3.6v3.1v2.2h-2.2v-5.3v-2.2v-5.3h5.8
							c0.5,0,1,0.1,1.5,0.3c0.5,0.2,0.9,0.5,1.2,0.8c0.3,0.3,0.6,0.7,0.8,1.2c0.2,0.4,0.3,0.9,0.3,1.4v0c0,0.4-0.1,0.8-0.2,1.2
							C39.8,16.9,39.6,17.3,39.4,17.6z M37.9,15.3c0-0.4-0.1-0.8-0.4-1.1c-0.3-0.3-0.7-0.4-1.1-0.4h-3.6v3.1h3.6
							c0.4,0,0.8-0.1,1.1-0.4C37.8,16.2,37.9,15.8,37.9,15.3L37.9,15.3L37.9,15.3z"/>
					</g>
					<g>
						<path class="st2" d="M39.4,17.6c0.5,0.3,0.9,0.8,1.2,1.3c0.3,0.5,0.4,1.1,0.4,1.8v0c0,0.5-0.1,1-0.3,1.5
							c-0.2,0.5-0.5,0.9-0.8,1.2c-0.3,0.3-0.7,0.6-1.2,0.8c-0.5,0.2-0.9,0.3-1.4,0.3h-3.6l0.9-2.2h2.8c0.4,0,0.8-0.1,1.1-0.4
							c0.3-0.3,0.5-0.7,0.5-1.1v0c0-0.4-0.2-0.8-0.5-1.1c-0.3-0.3-0.7-0.4-1.1-0.4h-0.9h-3.6v3.1v2.2h-2.2v-5.3v-2.2v-5.3h5.8
							c0.5,0,1,0.1,1.5,0.3c0.5,0.2,0.9,0.5,1.2,0.8c0.3,0.3,0.6,0.7,0.8,1.2c0.2,0.4,0.3,0.9,0.3,1.4v0c0,0.4-0.1,0.8-0.2,1.2
							C39.8,16.9,39.6,17.3,39.4,17.6z M37.9,15.3c0-0.4-0.1-0.8-0.4-1.1c-0.3-0.3-0.7-0.4-1.1-0.4h-3.6v3.1h3.6
							c0.4,0,0.8-0.1,1.1-0.4C37.8,16.2,37.9,15.8,37.9,15.3L37.9,15.3L37.9,15.3z"/>
					</g>
					<g>
						<path class="st2" d="M39.4,17.6c0.5,0.3,0.9,0.8,1.2,1.3c0.3,0.5,0.4,1.1,0.4,1.8v0c0,0.5-0.1,1-0.3,1.5
							c-0.2,0.5-0.5,0.9-0.8,1.2c-0.3,0.3-0.7,0.6-1.2,0.8c-0.5,0.2-0.9,0.3-1.4,0.3h-3.6l0.9-2.2h2.8c0.4,0,0.8-0.1,1.1-0.4
							c0.3-0.3,0.5-0.7,0.5-1.1v0c0-0.4-0.2-0.8-0.5-1.1c-0.3-0.3-0.7-0.4-1.1-0.4h-0.9h-3.6v3.1v2.2h-2.2v-5.3v-2.2v-5.3h5.8
							c0.5,0,1,0.1,1.5,0.3c0.5,0.2,0.9,0.5,1.2,0.8c0.3,0.3,0.6,0.7,0.8,1.2c0.2,0.4,0.3,0.9,0.3,1.4v0c0,0.4-0.1,0.8-0.2,1.2
							C39.8,16.9,39.6,17.3,39.4,17.6z M37.9,15.3c0-0.4-0.1-0.8-0.4-1.1c-0.3-0.3-0.7-0.4-1.1-0.4h-3.6v3.1h3.6
							c0.4,0,0.8-0.1,1.1-0.4C37.8,16.2,37.9,15.8,37.9,15.3L37.9,15.3L37.9,15.3z"/>
					</g>
				</g>
				<g>
					<g>
						<path class="st2" d="M49.5,11.3c0.9,0,1.8,0.2,2.6,0.5c0.8,0.3,1.5,0.8,2.1,1.4c0.6,0.6,1.1,1.3,1.4,2.1
							c0.3,0.8,0.5,1.7,0.5,2.6s-0.2,1.8-0.5,2.6c-0.4,0.8-0.8,1.5-1.4,2.1c-0.6,0.6-1.3,1.1-2.1,1.4c-0.8,0.3-1.7,0.5-2.6,0.5
							c-0.9,0-1.8-0.2-2.6-0.5c-0.8-0.3-1.5-0.8-2.1-1.4c-0.6-0.6-1.1-1.3-1.4-2.1c-0.3-0.8-0.5-1.7-0.5-2.6s0.2-1.8,0.5-2.6
							c0.3-0.8,0.8-1.5,1.4-2.1c0.6-0.6,1.3-1.1,2.1-1.4C47.7,11.5,48.6,11.3,49.5,11.3z M49.5,13.5c-0.6,0-1.2,0.1-1.7,0.3
							c-0.5,0.2-1,0.6-1.4,1c-0.4,0.4-0.8,0.9-1,1.4C45.1,16.8,45,17.4,45,18c0,0.6,0.1,1.2,0.3,1.7c0.2,0.5,0.6,1,1,1.5
							c0.4,0.4,0.9,0.8,1.4,1c0.5,0.2,1.1,0.3,1.7,0.3c0.6,0,1.2-0.1,1.7-0.3c0.5-0.2,1-0.5,1.5-1c0.4-0.4,0.8-0.9,1-1.5
							c0.2-0.5,0.3-1.1,0.3-1.7c0-0.6-0.1-1.2-0.3-1.7c-0.2-0.5-0.5-1-1-1.4c-0.4-0.4-0.9-0.8-1.5-1C50.6,13.6,50.1,13.5,49.5,13.5z
							"/>
					</g>
					<g>
						<path class="st2" d="M49.5,11.3c0.9,0,1.8,0.2,2.6,0.5c0.8,0.3,1.5,0.8,2.1,1.4c0.6,0.6,1.1,1.3,1.4,2.1
							c0.3,0.8,0.5,1.7,0.5,2.6s-0.2,1.8-0.5,2.6c-0.4,0.8-0.8,1.5-1.4,2.1c-0.6,0.6-1.3,1.1-2.1,1.4c-0.8,0.3-1.7,0.5-2.6,0.5
							c-0.9,0-1.8-0.2-2.6-0.5c-0.8-0.3-1.5-0.8-2.1-1.4c-0.6-0.6-1.1-1.3-1.4-2.1c-0.3-0.8-0.5-1.7-0.5-2.6s0.2-1.8,0.5-2.6
							c0.3-0.8,0.8-1.5,1.4-2.1c0.6-0.6,1.3-1.1,2.1-1.4C47.7,11.5,48.6,11.3,49.5,11.3z M49.5,13.5c-0.6,0-1.2,0.1-1.7,0.3
							c-0.5,0.2-1,0.6-1.4,1c-0.4,0.4-0.8,0.9-1,1.4C45.1,16.8,45,17.4,45,18c0,0.6,0.1,1.2,0.3,1.7c0.2,0.5,0.6,1,1,1.5
							c0.4,0.4,0.9,0.8,1.4,1c0.5,0.2,1.1,0.3,1.7,0.3c0.6,0,1.2-0.1,1.7-0.3c0.5-0.2,1-0.5,1.5-1c0.4-0.4,0.8-0.9,1-1.5
							c0.2-0.5,0.3-1.1,0.3-1.7c0-0.6-0.1-1.2-0.3-1.7c-0.2-0.5-0.5-1-1-1.4c-0.4-0.4-0.9-0.8-1.5-1C50.6,13.6,50.1,13.5,49.5,13.5z
							"/>
					</g>
					<g>
						<path class="st2" d="M49.5,11.3c0.9,0,1.8,0.2,2.6,0.5c0.8,0.3,1.5,0.8,2.1,1.4c0.6,0.6,1.1,1.3,1.4,2.1
							c0.3,0.8,0.5,1.7,0.5,2.6s-0.2,1.8-0.5,2.6c-0.4,0.8-0.8,1.5-1.4,2.1c-0.6,0.6-1.3,1.1-2.1,1.4c-0.8,0.3-1.7,0.5-2.6,0.5
							c-0.9,0-1.8-0.2-2.6-0.5c-0.8-0.3-1.5-0.8-2.1-1.4c-0.6-0.6-1.1-1.3-1.4-2.1c-0.3-0.8-0.5-1.7-0.5-2.6s0.2-1.8,0.5-2.6
							c0.3-0.8,0.8-1.5,1.4-2.1c0.6-0.6,1.3-1.1,2.1-1.4C47.7,11.5,48.6,11.3,49.5,11.3z M49.5,13.5c-0.6,0-1.2,0.1-1.7,0.3
							c-0.5,0.2-1,0.6-1.4,1c-0.4,0.4-0.8,0.9-1,1.4C45.1,16.8,45,17.4,45,18c0,0.6,0.1,1.2,0.3,1.7c0.2,0.5,0.6,1,1,1.5
							c0.4,0.4,0.9,0.8,1.4,1c0.5,0.2,1.1,0.3,1.7,0.3c0.6,0,1.2-0.1,1.7-0.3c0.5-0.2,1-0.5,1.5-1c0.4-0.4,0.8-0.9,1-1.5
							c0.2-0.5,0.3-1.1,0.3-1.7c0-0.6-0.1-1.2-0.3-1.7c-0.2-0.5-0.5-1-1-1.4c-0.4-0.4-0.9-0.8-1.5-1C50.6,13.6,50.1,13.5,49.5,13.5z
							"/>
					</g>
				</g>
				<g>
					<g>
						<path class="st2" d="M67.8,16.2c0,0.5-0.1,0.9-0.2,1.3c-0.1,0.4-0.3,0.8-0.5,1.2c-0.2,0.4-0.5,0.7-0.8,1
							c-0.3,0.3-0.7,0.5-1.1,0.7l2.6,4.1h-2.6l-2.3-3.6h-1.5l0.9-2.2h1c0.7,0,1.2-0.2,1.7-0.7c0.2-0.2,0.4-0.5,0.5-0.8
							c0.1-0.3,0.2-0.6,0.2-0.9c0-0.3-0.1-0.6-0.2-0.9c-0.1-0.3-0.3-0.6-0.5-0.8c-0.5-0.5-1-0.7-1.7-0.7h-2.6V15v3.6v2.2v3.6h-2.2
							v-3.6V15v-3.4h4.8c0.6,0,1.2,0.1,1.8,0.4c0.6,0.2,1,0.6,1.5,1c0.4,0.4,0.7,0.9,1,1.5C67.7,15,67.8,15.6,67.8,16.2z"/>
					</g>
					<g>
						<path class="st2" d="M67.8,16.2c0,0.5-0.1,0.9-0.2,1.3c-0.1,0.4-0.3,0.8-0.5,1.2c-0.2,0.4-0.5,0.7-0.8,1
							c-0.3,0.3-0.7,0.5-1.1,0.7l2.6,4.1h-2.6l-2.3-3.6h-1.5l0.9-2.2h1c0.7,0,1.2-0.2,1.7-0.7c0.2-0.2,0.4-0.5,0.5-0.8
							c0.1-0.3,0.2-0.6,0.2-0.9c0-0.3-0.1-0.6-0.2-0.9c-0.1-0.3-0.3-0.6-0.5-0.8c-0.5-0.5-1-0.7-1.7-0.7h-2.6V15v3.6v2.2v3.6h-2.2
							v-3.6V15v-3.4h4.8c0.6,0,1.2,0.1,1.8,0.4c0.6,0.2,1,0.6,1.5,1c0.4,0.4,0.7,0.9,1,1.5C67.7,15,67.8,15.6,67.8,16.2z"/>
					</g>
					<g>
						<path class="st2" d="M67.8,16.2c0,0.5-0.1,0.9-0.2,1.3c-0.1,0.4-0.3,0.8-0.5,1.2c-0.2,0.4-0.5,0.7-0.8,1
							c-0.3,0.3-0.7,0.5-1.1,0.7l2.6,4.1h-2.6l-2.3-3.6h-1.5l0.9-2.2h1c0.7,0,1.2-0.2,1.7-0.7c0.2-0.2,0.4-0.5,0.5-0.8
							c0.1-0.3,0.2-0.6,0.2-0.9c0-0.3-0.1-0.6-0.2-0.9c-0.1-0.3-0.3-0.6-0.5-0.8c-0.5-0.5-1-0.7-1.7-0.7h-2.6V15v3.6v2.2v3.6h-2.2
							v-3.6V15v-3.4h4.8c0.6,0,1.2,0.1,1.8,0.4c0.6,0.2,1,0.6,1.5,1c0.4,0.4,0.7,0.9,1,1.5C67.7,15,67.8,15.6,67.8,16.2z"/>
					</g>
				</g>
				<g>
					<g>
						<path class="st2" d="M78.8,17.6c0.5,0.3,0.9,0.8,1.2,1.3c0.3,0.5,0.4,1.1,0.4,1.8v0c0,0.5-0.1,1-0.3,1.5
							c-0.2,0.5-0.5,0.9-0.8,1.2c-0.3,0.3-0.7,0.6-1.2,0.8c-0.4,0.2-0.9,0.3-1.4,0.3H73l0.9-2.2h2.8c0.4,0,0.8-0.1,1.1-0.4
							c0.3-0.3,0.4-0.7,0.4-1.1v0c0-0.4-0.1-0.8-0.4-1.1c-0.3-0.3-0.7-0.4-1.1-0.4h-0.9h-3.6v3.1v2.2H70v-5.3v-2.2v-5.3h5.8
							c0.5,0,1,0.1,1.5,0.3c0.5,0.2,0.9,0.5,1.2,0.8c0.3,0.3,0.6,0.7,0.8,1.2c0.2,0.4,0.3,0.9,0.3,1.4v0c0,0.4-0.1,0.8-0.2,1.2
							C79.2,16.9,79,17.3,78.8,17.6z M77.3,15.3c0-0.4-0.2-0.8-0.4-1.1c-0.3-0.3-0.7-0.4-1.1-0.4h-3.6v3.1h3.6
							c0.4,0,0.8-0.1,1.1-0.4C77.2,16.2,77.3,15.8,77.3,15.3L77.3,15.3z"/>
					</g>
					<g>
						<path class="st2" d="M78.8,17.6c0.5,0.3,0.9,0.8,1.2,1.3c0.3,0.5,0.4,1.1,0.4,1.8v0c0,0.5-0.1,1-0.3,1.5
							c-0.2,0.5-0.5,0.9-0.8,1.2c-0.3,0.3-0.7,0.6-1.2,0.8c-0.4,0.2-0.9,0.3-1.4,0.3H73l0.9-2.2h2.8c0.4,0,0.8-0.1,1.1-0.4
							c0.3-0.3,0.4-0.7,0.4-1.1v0c0-0.4-0.1-0.8-0.4-1.1c-0.3-0.3-0.7-0.4-1.1-0.4h-0.9h-3.6v3.1v2.2H70v-5.3v-2.2v-5.3h5.8
							c0.5,0,1,0.1,1.5,0.3c0.5,0.2,0.9,0.5,1.2,0.8c0.3,0.3,0.6,0.7,0.8,1.2c0.2,0.4,0.3,0.9,0.3,1.4v0c0,0.4-0.1,0.8-0.2,1.2
							C79.2,16.9,79,17.3,78.8,17.6z M77.3,15.3c0-0.4-0.2-0.8-0.4-1.1c-0.3-0.3-0.7-0.4-1.1-0.4h-3.6v3.1h3.6
							c0.4,0,0.8-0.1,1.1-0.4C77.2,16.2,77.3,15.8,77.3,15.3L77.3,15.3z"/>
					</g>
					<g>
						<path class="st2" d="M78.8,17.6c0.5,0.3,0.9,0.8,1.2,1.3c0.3,0.5,0.4,1.1,0.4,1.8v0c0,0.5-0.1,1-0.3,1.5
							c-0.2,0.5-0.5,0.9-0.8,1.2c-0.3,0.3-0.7,0.6-1.2,0.8c-0.4,0.2-0.9,0.3-1.4,0.3H73l0.9-2.2h2.8c0.4,0,0.8-0.1,1.1-0.4
							c0.3-0.3,0.4-0.7,0.4-1.1v0c0-0.4-0.1-0.8-0.4-1.1c-0.3-0.3-0.7-0.4-1.1-0.4h-0.9h-3.6v3.1v2.2H70v-5.3v-2.2v-5.3h5.8
							c0.5,0,1,0.1,1.5,0.3c0.5,0.2,0.9,0.5,1.2,0.8c0.3,0.3,0.6,0.7,0.8,1.2c0.2,0.4,0.3,0.9,0.3,1.4v0c0,0.4-0.1,0.8-0.2,1.2
							C79.2,16.9,79,17.3,78.8,17.6z M77.3,15.3c0-0.4-0.2-0.8-0.4-1.1c-0.3-0.3-0.7-0.4-1.1-0.4h-3.6v3.1h3.6
							c0.4,0,0.8-0.1,1.1-0.4C77.2,16.2,77.3,15.8,77.3,15.3L77.3,15.3z"/>
					</g>
				</g>
				<g>
					<g>
						<path class="st2" d="M85,24.4h-2.2V11.6H85V24.4z"/>
					</g>
					<g>
						<path class="st2" d="M85,24.4h-2.2V11.6H85V24.4z"/>
					</g>
					<g>
						<path class="st2" d="M85,24.4h-2.2V11.6H85V24.4z"/>
					</g>
				</g>
				<g>
					<g>
						<path class="st2" d="M96.9,13.8h-3.7v10.6h-2.2V13.8h-3.8v-2.2h3.8h2.2h3.7V13.8z"/>
					</g>
					<g>
						<path class="st2" d="M96.9,13.8h-3.7v10.6h-2.2V13.8h-3.8v-2.2h3.8h2.2h3.7V13.8z"/>
					</g>
					<g>
						<path class="st2" d="M96.9,13.8h-3.7v10.6h-2.2V13.8h-3.8v-2.2h3.8h2.2h3.7V13.8z"/>
					</g>
				</g>
			</g>
		</g>
	</g>
</g>
<g id="Layer_2_1_">
	<g>
		<path class="st2" d="M1,4.3v2.5H0.2V0.4h2.4c0.7,0,1.2,0.2,1.6,0.5s0.6,0.8,0.6,1.4c0,0.6-0.2,1.1-0.6,1.4
			C3.8,4.2,3.2,4.3,2.5,4.3H1z M1,3.7h1.5c0.5,0,0.8-0.1,1-0.3c0.2-0.2,0.4-0.5,0.4-0.9c0-0.4-0.1-0.7-0.4-0.9S3,1.1,2.6,1.1H1V3.7z
			"/>
		<path class="st2" d="M5.4,4.4c0-0.5,0.1-0.9,0.3-1.3c0.2-0.4,0.4-0.7,0.8-0.9C6.8,2.1,7.2,2,7.6,2c0.6,0,1.2,0.2,1.6,0.7
			c0.4,0.4,0.6,1,0.6,1.8v0.1c0,0.5-0.1,0.9-0.3,1.2C9.3,6.1,9.1,6.4,8.7,6.6C8.4,6.8,8,6.9,7.6,6.9C6.9,6.9,6.4,6.7,6,6.3
			C5.6,5.8,5.4,5.2,5.4,4.4L5.4,4.4L5.4,4.4z M6.2,4.5c0,0.5,0.1,1,0.4,1.3s0.6,0.5,1,0.5c0.4,0,0.7-0.2,1-0.5
			C8.8,5.5,8.9,5,8.9,4.4c0-0.5-0.1-0.9-0.4-1.3C8.3,2.8,8,2.7,7.6,2.7c-0.4,0-0.7,0.2-1,0.5S6.2,3.9,6.2,4.5z"/>
		<path class="st2" d="M15,5.7l0.9-3.6h0.8l-1.4,4.8h-0.7l-1.2-3.6l-1.1,3.6h-0.7l-1.4-4.8h0.8l0.9,3.6l1.1-3.6h0.7L15,5.7z"/>
		<path class="st2" d="M19.5,6.9c-0.6,0-1.2-0.2-1.6-0.6s-0.6-1-0.6-1.7V4.5c0-0.5,0.1-0.9,0.3-1.3c0.2-0.4,0.4-0.7,0.8-0.9
			S19,2,19.4,2c0.6,0,1.1,0.2,1.4,0.6s0.5,1,0.5,1.7v0.3h-3.2c0,0.5,0.1,0.8,0.4,1.1c0.3,0.3,0.6,0.4,1,0.4c0.3,0,0.5-0.1,0.7-0.2
			s0.4-0.3,0.5-0.5L21.3,6C20.9,6.6,20.3,6.9,19.5,6.9z M19.4,2.7c-0.3,0-0.6,0.1-0.8,0.4s-0.4,0.6-0.4,1h2.4V4c0-0.4-0.1-0.7-0.3-1
			S19.8,2.7,19.4,2.7z"/>
		<path class="st2" d="M24.6,2.8c-0.1,0-0.3,0-0.4,0c-0.5,0-0.9,0.2-1.1,0.7v3.4h-0.8V2.1h0.8l0,0.5C23.4,2.2,23.8,2,24.2,2
			c0.2,0,0.3,0,0.4,0.1C24.6,2.1,24.6,2.8,24.6,2.8z"/>
		<path class="st2" d="M27.2,6.9c-0.6,0-1.2-0.2-1.6-0.6s-0.6-1-0.6-1.7V4.5c0-0.5,0.1-0.9,0.3-1.3c0.2-0.4,0.4-0.7,0.8-0.9
			S26.8,2,27.1,2c0.6,0,1.1,0.2,1.4,0.6s0.5,1,0.5,1.7v0.3h-3.2c0,0.5,0.1,0.8,0.4,1.1c0.3,0.3,0.6,0.4,1,0.4c0.3,0,0.5-0.1,0.7-0.2
			s0.4-0.3,0.5-0.5L29,6C28.6,6.6,28,6.9,27.2,6.9z M27.1,2.7c-0.3,0-0.6,0.1-0.8,0.4S26,3.6,25.9,4h2.4V4c0-0.4-0.1-0.7-0.3-1
			S27.5,2.7,27.1,2.7z"/>
		<path class="st2" d="M29.8,4.4c0-0.7,0.2-1.3,0.5-1.8C30.7,2.2,31.2,2,31.7,2c0.6,0,1,0.2,1.3,0.6V0.1h0.8v6.8h-0.7l0-0.5
			c-0.3,0.4-0.8,0.6-1.4,0.6c-0.6,0-1-0.2-1.3-0.7C30,5.8,29.8,5.2,29.8,4.4C29.8,4.5,29.8,4.4,29.8,4.4z M30.7,4.5
			c0,0.5,0.1,1,0.3,1.3s0.5,0.5,0.9,0.5c0.5,0,0.9-0.2,1.1-0.7V3.4c-0.2-0.4-0.6-0.7-1.1-0.7c-0.4,0-0.7,0.2-0.9,0.5
			S30.7,3.9,30.7,4.5z"/>
		<path class="st2" d="M41.4,4.5c0,0.7-0.2,1.3-0.5,1.8s-0.8,0.7-1.3,0.7c-0.6,0-1.1-0.2-1.4-0.6l0,0.5h-0.7V0.1h0.8v2.5
			C38.5,2.2,38.9,2,39.5,2s1,0.2,1.4,0.7C41.2,3.1,41.4,3.7,41.4,4.5L41.4,4.5L41.4,4.5z M40.6,4.4c0-0.6-0.1-1-0.3-1.3
			s-0.5-0.5-0.9-0.5c-0.5,0-0.9,0.2-1.2,0.7v2.1c0.2,0.5,0.6,0.7,1.2,0.7c0.4,0,0.7-0.2,0.9-0.5S40.6,5,40.6,4.4z"/>
		<path class="st2" d="M43.9,5.7L45,2.1h0.9L44,7.6c-0.3,0.8-0.8,1.2-1.4,1.2l-0.2,0l-0.3-0.1V8l0.2,0c0.3,0,0.5-0.1,0.6-0.2
			c0.2-0.1,0.3-0.3,0.4-0.6l0.2-0.5l-1.7-4.7h0.9L43.9,5.7z"/>
	</g>
</g>
</svg>
