<?xml version="1.0" encoding="utf-8"?>
<!-- Generator: Adobe Illustrator 22.0.0, SVG Export Plug-In . SVG Version: 6.00 Build 0)  -->
<svg version="1.1" id="Layer_1" xmlns="http://www.w3.org/2000/svg" xmlns:xlink="http://www.w3.org/1999/xlink" x="0px" y="0px"
	 viewBox="0 0 605.5 111.6" style="enable-background:new 0 0 605.5 111.6;" xml:space="preserve">
<style type="text/css">
	.st0{enable-background:new    ;}
	.st1{display:none;enable-background:new    ;}
	.st2{font-family:'MyriadPro-Regular';}
	.st3{font-size:12px;}
</style>
<g>
	<path d="M113.2,68.6c-2.4-2.1-4.9-4.1-7.4-6c2.5-1.9,5-3.9,7.4-6c8.8-7.6,16.6-16.1,23.4-25.3h-28.4C86.5,54,57,68.6,24.1,71.3v-40
		H2v62.5h11c25.7,0,50.7-6.5,73-18.5c8,5.3,15.4,11.5,22.1,18.5h28.4C129.8,84.6,121.9,76.1,113.2,68.6z"/>
	<g class="st0">
		<path d="M182.1,52.2v41.6h-10V73.1c0-3.3-1.2-6.1-3.5-8.5c-2.3-2.3-5.1-3.5-8.5-3.5c-1.6,0-3.1,0.3-4.6,0.9
			c-1.5,0.6-2.8,1.5-3.9,2.6c-2.3,2.3-3.5,5.1-3.5,8.5c0,3.3,1.2,6.1,3.5,8.4c1.1,1.2,2.4,2,3.9,2.6s3,0.9,4.6,0.9
			c1.7,0,3.2-0.3,4.5-0.8l3.6,8.9c-2.5,1.3-5.5,1.9-8.9,1.9c-3,0-5.9-0.6-8.4-1.7s-4.8-2.7-6.7-4.7s-3.4-4.3-4.4-7
			c-1.1-2.7-1.6-5.5-1.6-8.5s0.5-5.9,1.6-8.6c1.1-2.7,2.5-5,4.4-7s4.1-3.6,6.7-4.7c2.6-1.1,5.4-1.7,8.4-1.7c2.7,0,5.1,0.4,7.2,1.2
			c2.1,0.8,4,1.9,5.6,3.2v-3.3C172.1,52.2,182.1,52.2,182.1,52.2z"/>
		<path d="M232,51.2c2.3,0,4.4,0.4,6.1,1.3s3.2,2.1,4.3,3.7c1.1,1.6,1.9,3.4,2.5,5.4s0.8,4.3,0.8,6.6v25.7h-10V68.2
			c0-1.9-0.7-3.6-2.1-5c-1.3-1.4-3-2.1-5-2.1s-3.7,0.7-5,2.1c-1.4,1.4-2.1,3-2.1,5v25.7h-10V68.2c0-1.9-0.7-3.6-2.1-5
			c-0.7-0.7-1.4-1.2-2.3-1.6c-0.9-0.3-1.8-0.5-2.7-0.5c-2,0-3.7,0.7-5.1,2.1c-1.4,1.4-2.1,3-2.1,5v25.7h-10V52.3h10V56
			c1.6-1.4,3.3-2.5,5.1-3.4s3.6-1.4,5.4-1.4c2.5,0,4.5,0.5,6.1,1.5s3,2.4,4.3,4.2c1.5-1.6,3.4-2.9,5.8-4
			C226.5,51.7,229.1,51.2,232,51.2z"/>
		<path d="M303.1,38c3.5,1.5,6.6,3.6,9.3,6.2c2.6,2.6,4.7,5.7,6.2,9.3c1.5,3.5,2.3,7.3,2.3,11.3s-0.8,7.8-2.3,11.3s-3.6,6.6-6.2,9.3
			c-2.6,2.6-5.7,4.7-9.3,6.2c-3.5,1.5-7.3,2.3-11.3,2.3h-10.3l4.1-10h6.2c2.5,0,5-0.5,7.3-1.5s4.4-2.3,6.2-4.1
			c1.8-1.8,3.1-3.9,4.1-6.2c1-2.3,1.5-4.7,1.5-7.4c0-2.5-0.5-5-1.5-7.3s-2.3-4.4-4.1-6.2c-1.8-1.8-3.9-3.1-6.2-4.1
			c-2.3-1-4.8-1.5-7.3-1.5h-14.1v24.1v14.1v10h-10V35.7h24.1C295.8,35.7,299.5,36.5,303.1,38z"/>
		<path d="M357.4,78.1h-21.8c0.6,1.3,1.4,2.4,2.4,3.4c1.2,1.2,2.5,2,3.9,2.6s3,0.9,4.6,0.9c2.3,0,4.3-0.5,6.1-1.6l10.4,4.2
			c-2,2.3-4.4,4.1-7.2,5.4s-5.9,2-9.2,2c-3,0-5.9-0.6-8.6-1.7s-5-2.7-7-4.7s-3.6-4.3-4.7-7s-1.7-5.5-1.7-8.5s0.6-5.9,1.7-8.6
			s2.7-5,4.7-7s4.3-3.6,7-4.7c2.7-1.1,5.5-1.7,8.6-1.7c3,0,5.9,0.6,8.6,1.7c2.7,1.1,5,2.7,7,4.7s3.6,4.3,4.7,7
			c1.1,2.7,1.7,5.5,1.7,8.6c0,1.8-0.2,3.4-0.6,5C368,78.1,357.4,78.1,357.4,78.1z M346.5,61.1c-3.2,0-6,1.2-8.5,3.5
			c-1.1,1.1-1.9,2.2-2.4,3.5h21.8c-0.6-1.3-1.4-2.4-2.4-3.5C352.7,62.3,349.8,61.1,346.5,61.1z"/>
		<path d="M415.6,52.3l-19.3,41.5h-11L366,52.3h11L390.8,82l13.8-29.7H415.6z"/>
		<path d="M446,78.1h-21.8c0.6,1.3,1.4,2.4,2.4,3.4c1.2,1.2,2.5,2,3.9,2.6s3,0.9,4.6,0.9c2.3,0,4.3-0.5,6.1-1.6l10.4,4.2
			c-2,2.3-4.4,4.1-7.2,5.4s-5.9,2-9.2,2c-3,0-5.9-0.6-8.6-1.7s-5-2.7-7-4.7s-3.6-4.3-4.7-7s-1.7-5.5-1.7-8.5s0.6-5.9,1.7-8.6
			c1.1-2.7,2.7-5,4.7-7s4.3-3.6,7-4.7c2.7-1.1,5.5-1.7,8.6-1.7c3,0,5.9,0.6,8.6,1.7c2.7,1.1,5,2.7,7,4.7s3.6,4.3,4.7,7
			c1.1,2.7,1.7,5.5,1.7,8.6c0,1.8-0.2,3.4-0.6,5C456.6,78.1,446,78.1,446,78.1z M435.2,61.1c-3.2,0-6,1.2-8.5,3.5
			c-1.1,1.1-1.9,2.2-2.4,3.5H446c-0.6-1.3-1.4-2.4-2.4-3.5C441.3,62.3,438.5,61.1,435.2,61.1z"/>
		<path d="M461.7,93.9V35.7h10v58.1L461.7,93.9L461.7,93.9z"/>
		<path d="M498.1,51.2c3,0,5.9,0.6,8.6,1.7c2.7,1.1,5,2.7,7,4.7s3.6,4.3,4.7,7c1.1,2.7,1.7,5.5,1.7,8.6c0,3-0.6,5.8-1.7,8.5
			c-1.1,2.7-2.7,5-4.7,7s-4.3,3.6-7,4.7s-5.5,1.7-8.6,1.7c-3,0-5.9-0.6-8.6-1.7s-5-2.7-7-4.7s-3.6-4.3-4.7-7s-1.7-5.5-1.7-8.5
			s0.6-5.9,1.7-8.6c1.1-2.7,2.7-5,4.7-7s4.3-3.6,7-4.7C492.2,51.7,495.1,51.2,498.1,51.2z M498.1,61.1c-3.3,0-6.1,1.2-8.5,3.5
			c-2.3,2.3-3.5,5.1-3.5,8.5c0,3.3,1.2,6.1,3.5,8.4c1.1,1.2,2.4,2,3.9,2.6s3,0.9,4.6,0.9s3.1-0.3,4.6-0.9c1.4-0.6,2.7-1.5,3.9-2.6
			c2.3-2.3,3.5-5.1,3.5-8.4s-1.2-6.1-3.5-8.5C504.2,62.3,501.3,61.1,498.1,61.1z"/>
		<path d="M547.4,51.2c3,0,5.9,0.6,8.4,1.7c2.6,1.1,4.8,2.7,6.7,4.7s3.3,4.3,4.4,7c1.1,2.7,1.6,5.5,1.6,8.6c0,3-0.5,5.8-1.6,8.5
			s-2.5,5-4.4,7s-4.1,3.6-6.7,4.7s-5.4,1.7-8.4,1.7c-3.4,0-6.3-0.6-8.9-1.9l3.6-8.9c1.3,0.6,2.8,0.8,4.5,0.8c1.6,0,3.1-0.3,4.6-0.9
			c1.4-0.6,2.7-1.5,3.9-2.6c2.3-2.3,3.5-5.1,3.5-8.4s-1.2-6.1-3.5-8.5c-2.4-2.3-5.3-3.5-8.5-3.5c-3.3,0-6.1,1.2-8.5,3.5
			c-2.3,2.3-3.5,5.1-3.5,8.5v17.4v19.9h-10V52.2h10v3.3c1.6-1.3,3.5-2.3,5.6-3.2C542.3,51.6,544.7,51.2,547.4,51.2z"/>
		<path d="M589.2,68.1c0.7,0.2,1.8,0.6,3.3,1.2s3.1,1.5,4.8,2.5c1.6,1.1,3.1,2.4,4.3,4s1.8,3.5,1.8,5.7c0,1.9-0.3,3.7-1,5.3
			c-0.6,1.6-1.6,3-2.8,4.2s-2.7,2.2-4.5,2.8c-1.8,0.7-3.8,1-6,1c-3.4,0-6.5-0.6-9.4-1.8c-2.9-1.2-5.2-2.7-7-4.5l6.9-6.9
			c1.4,1.7,3,2.8,4.6,3.3s3,0.7,4.1,0.7c1.7,0,3-0.3,3.8-1s1.2-1.5,1.2-2.4c0-0.7-0.3-1.2-0.8-1.7c-0.6-0.5-1.2-0.9-2-1.2
			s-1.5-0.6-2.3-0.8c-0.8-0.2-1.4-0.4-1.9-0.5c-0.7-0.2-1.8-0.6-3.4-1.2c-1.6-0.6-3.2-1.4-4.8-2.4c-1.6-1.1-3.1-2.4-4.3-4
			s-1.8-3.5-1.8-5.8c0-2.3,0.4-4.3,1.2-6s1.9-3.1,3.2-4.2c1.3-1.1,2.9-1.9,4.6-2.5c1.7-0.5,3.5-0.8,5.3-0.8c2.8,0,5.2,0.3,7.2,1
			s3.6,1.4,4.9,2.2c1.4,0.9,2.7,2,3.7,3.2l-7,7c-1.1-1.4-2.3-2.5-3.7-3.2c-1.3-0.7-2.7-1-4.2-1c-1.2,0-2.3,0.3-3.4,0.8
			c-1.1,0.6-1.7,1.4-1.7,2.7c0,0.7,0.2,1.2,0.7,1.7s1.1,0.9,1.8,1.2c0.7,0.3,1.5,0.6,2.3,0.8C587.8,67.7,588.6,67.9,589.2,68.1z"/>
	</g>
</g>
<text transform="matrix(1 0 0 1 588.5879 66.5923)" class="st1 st2 st3">our-services</text>
<g class="st0">
	<path d="M2.1,24.3V4h6.6c2.5,0,4.1,0.1,4.9,0.3c1.2,0.3,2.1,1,2.9,2s1.2,2.3,1.2,3.9c0,1.2-0.2,2.3-0.7,3.1s-1,1.5-1.7,2
		s-1.4,0.8-2.1,1c-1,0.2-2.4,0.3-4.2,0.3H6.1v7.6L2.1,24.3L2.1,24.3z M6.1,7.4v5.7h2.2c1.6,0,2.7-0.1,3.2-0.3s1-0.5,1.3-1
		s0.5-1,0.5-1.6c0-0.7-0.2-1.3-0.6-1.8c-0.4-0.5-1-0.8-1.6-0.9c-0.5-0.1-1.5-0.1-2.9-0.1C8.2,7.4,6.1,7.4,6.1,7.4z"/>
	<path d="M23,16.7c0-1.3,0.3-2.5,1-3.7c0.6-1.2,1.5-2.1,2.7-2.8c1.2-0.6,2.5-1,3.9-1c2.2,0,4,0.7,5.5,2.2c1.4,1.4,2.1,3.3,2.1,5.5
		s-0.7,4.1-2.1,5.5c-1.4,1.5-3.2,2.2-5.4,2.2c-1.3,0-2.6-0.3-3.8-0.9S24.6,22.2,24,21C23.3,19.8,23,18.4,23,16.7z M27,16.9
		c0,1.5,0.3,2.6,1,3.3c0.7,0.8,1.5,1.2,2.6,1.2c1,0,1.9-0.4,2.5-1.2c0.7-0.8,1-1.9,1-3.4c0-1.4-0.3-2.5-1-3.3s-1.5-1.2-2.5-1.2
		s-1.9,0.4-2.6,1.2S27,15.5,27,16.9z"/>
	<path d="M46.9,24.3L42.3,9.6H46l2.7,9.6l2.5-9.6h3.7l2.4,9.6l2.8-9.6h3.8l-4.7,14.7h-3.7L53,14.9l-2.5,9.4H46.9z"/>
	<path d="M77.7,19.6l3.9,0.6c-0.5,1.4-1.3,2.5-2.4,3.2s-2.4,1.1-4,1.1c-2.6,0-4.4-0.8-5.7-2.5c-1-1.3-1.5-3-1.5-5.1
		c0-2.4,0.6-4.3,1.9-5.7s2.9-2.1,4.8-2.1c2.2,0,3.9,0.7,5.2,2.2c1.3,1.4,1.9,3.6,1.8,6.6H72c0,1.2,0.3,2,0.9,2.7
		c0.6,0.6,1.3,1,2.2,1c0.6,0,1.1-0.2,1.5-0.5C77.1,20.9,77.5,20.3,77.7,19.6z M77.9,15.7c0-1.1-0.3-2-0.9-2.6
		c-0.6-0.6-1.2-0.9-2-0.9s-1.5,0.3-2.1,0.9c-0.6,0.6-0.8,1.5-0.8,2.5L77.9,15.7L77.9,15.7z"/>
	<path d="M91.6,24.3h-3.9V9.6h3.6v2.1c0.6-1,1.2-1.6,1.7-1.9c0.5-0.3,1.1-0.5,1.7-0.5c0.9,0,1.7,0.2,2.6,0.7L96,13.4
		c-0.7-0.4-1.3-0.6-1.8-0.6s-1,0.2-1.4,0.4c-0.4,0.3-0.7,0.8-0.9,1.6c-0.2,0.8-0.3,2.4-0.3,4.9C91.6,19.7,91.6,24.3,91.6,24.3z"/>
	<path d="M110.4,19.6l3.9,0.6c-0.5,1.4-1.3,2.5-2.4,3.2s-2.4,1.1-4,1.1c-2.6,0-4.4-0.8-5.7-2.5c-1-1.3-1.5-3-1.5-5.1
		c0-2.4,0.6-4.3,1.9-5.7s2.9-2.1,4.8-2.1c2.2,0,3.9,0.7,5.2,2.2c1.3,1.4,1.9,3.6,1.8,6.6h-9.7c0,1.2,0.3,2,0.9,2.7
		c0.6,0.6,1.3,1,2.2,1c0.6,0,1.1-0.2,1.5-0.5C109.9,20.9,110.2,20.3,110.4,19.6z M110.6,15.7c0-1.1-0.3-2-0.9-2.6
		c-0.6-0.6-1.2-0.9-2-0.9s-1.5,0.3-2.1,0.9c-0.6,0.6-0.8,1.5-0.8,2.5L110.6,15.7L110.6,15.7z"/>
	<path d="M134.1,24.3h-3.6v-2.2c-0.6,0.8-1.3,1.5-2.1,1.9s-1.6,0.6-2.5,0.6c-1.7,0-3.1-0.7-4.3-2c-1.2-1.4-1.8-3.3-1.8-5.7
		c0-2.5,0.6-4.4,1.8-5.7c1.2-1.3,2.6-1.9,4.4-1.9c1.6,0,3.1,0.7,4.3,2V4h3.9L134.1,24.3L134.1,24.3z M123.7,16.6
		c0,1.6,0.2,2.7,0.6,3.4c0.6,1,1.5,1.5,2.6,1.5c0.9,0,1.7-0.4,2.3-1.1s0.9-1.9,0.9-3.4c0-1.7-0.3-2.9-0.9-3.6
		c-0.6-0.7-1.4-1.1-2.3-1.1s-1.7,0.4-2.3,1.1C124,14.1,123.7,15.2,123.7,16.6z"/>
	<path d="M151.8,4h8.1c1.6,0,2.8,0.1,3.6,0.2s1.5,0.4,2.1,0.8s1.1,1,1.6,1.7c0.4,0.7,0.6,1.5,0.6,2.4c0,0.9-0.3,1.8-0.8,2.6
		s-1.2,1.4-2.1,1.8c1.2,0.4,2.2,1,2.8,1.8c0.7,0.9,1,1.9,1,3.1c0,0.9-0.2,1.8-0.6,2.7s-1,1.6-1.8,2.1c-0.7,0.5-1.7,0.8-2.7,1
		c-0.7,0.1-2.3,0.1-4.9,0.1h-6.9L151.8,4L151.8,4z M155.9,7.4v4.7h2.7c1.6,0,2.6,0,3-0.1c0.7-0.1,1.2-0.3,1.7-0.7s0.6-0.9,0.6-1.6
		c0-0.6-0.2-1.1-0.5-1.5c-0.3-0.4-0.9-0.6-1.5-0.7c-0.4,0-1.6-0.1-3.5-0.1H155.9z M155.9,15.4v5.4h3.8c1.5,0,2.4,0,2.8-0.1
		c0.6-0.1,1.1-0.4,1.5-0.8s0.6-1,0.6-1.7c0-0.6-0.1-1.1-0.4-1.5c-0.3-0.4-0.7-0.7-1.3-0.9s-1.8-0.3-3.6-0.3L155.9,15.4L155.9,15.4z"
		/>
	<path d="M173.4,9.6h4.1L181,20l3.4-10.4h4l-5.2,14.1l-0.9,2.6c-0.3,0.9-0.7,1.5-1,2s-0.7,0.8-1.1,1.1c-0.4,0.3-0.9,0.5-1.5,0.7
		s-1.2,0.2-2,0.2c-0.7,0-1.5-0.1-2.2-0.2l-0.3-3c0.6,0.1,1.2,0.2,1.6,0.2c0.9,0,1.6-0.3,2-0.8s0.8-1.2,1-2L173.4,9.6z"/>
</g>
</svg>
